<svg width="53" height="53" viewBox="0 0 53 53" fill="none" xmlns="http://www.w3.org/2000/svg">
<g filter="url(#filter0_d)">
<path d="M49 45H37.75V33.75H49V45ZM32.125 45H20.875V33.75H32.125V45ZM15.25 45H4V33.75H15.25V45ZM49 28.125H37.75V16.875H49V28.125ZM32.125 28.125H20.875V16.875H32.125V28.125ZM15.25 28.125H4V16.875H15.25V28.125ZM49 11.25H37.75V0H49V11.25ZM32.125 11.25H20.875V0H32.125V11.25ZM15.25 11.25H4V0H15.25V11.25Z" fill="#C4C4C4"/>
</g>
<defs>
<filter id="filter0_d" x="0" y="0" width="53" height="53" filterUnits="userSpaceOnUse" color-interpolation-filters="sRGB">
<feFlood flood-opacity="0" result="BackgroundImageFix"/>
<feColorMatrix in="SourceAlpha" type="matrix" values="0 0 0 0 0 0 0 0 0 0 0 0 0 0 0 0 0 0 127 0"/>
<feOffset dy="4"/>
<feGaussianBlur stdDeviation="2"/>
<feColorMatrix type="matrix" values="0 0 0 0 0 0 0 0 0 0 0 0 0 0 0 0 0 0 0.25 0"/>
<feBlend mode="normal" in2="BackgroundImageFix" result="effect1_dropShadow"/>
<feBlend mode="normal" in="SourceGraphic" in2="effect1_dropShadow" result="shape"/>
</filter>
</defs>
</svg>
