<svg width="45" height="45" viewBox="0 0 45 45" fill="none" xmlns="http://www.w3.org/2000/svg">
<path d="M43.9453 19.6875H41.2766C40.0539 11.4543 33.5457 4.94613 25.3125 3.7234V1.05469C25.3125 0.472236 24.8403 0 24.2578 0H20.7422C20.1597 0 19.6875 0.472236 19.6875 1.05469V3.7234C11.4543 4.94613 4.94613 11.4543 3.7234 19.6875H1.05469C0.472236 19.6875 0 20.1597 0 20.7422V24.2578C0 24.8403 0.472236 25.3125 1.05469 25.3125H3.7234C4.94613 33.5457 11.4543 40.0539 19.6875 41.2766V43.9453C19.6875 44.5278 20.1597 45 20.7422 45H24.2578C24.8403 45 25.3125 44.5278 25.3125 43.9453V41.2766C33.5457 40.0539 40.0539 33.5457 41.2766 25.3125H43.9453C44.5278 25.3125 45 24.8403 45 24.2578V20.7422C45 20.1597 44.5278 19.6875 43.9453 19.6875ZM25.3125 35.5635V31.9922C25.3125 31.4097 24.8403 30.9375 24.2578 30.9375H20.7422C20.1597 30.9375 19.6875 31.4097 19.6875 31.9922V35.5635C14.5746 34.4735 10.5278 30.4315 9.43646 25.3125H13.0078C13.5903 25.3125 14.0625 24.8403 14.0625 24.2578V20.7422C14.0625 20.1597 13.5903 19.6875 13.0078 19.6875H9.43646C10.5265 14.5746 14.5685 10.5278 19.6875 9.43646V13.0078C19.6875 13.5903 20.1597 14.0625 20.7422 14.0625H24.2578C24.8403 14.0625 25.3125 13.5903 25.3125 13.0078V9.43646C30.4254 10.5265 34.4722 14.5685 35.5635 19.6875H31.9922C31.4097 19.6875 30.9375 20.1597 30.9375 20.7422V24.2578C30.9375 24.8403 31.4097 25.3125 31.9922 25.3125H35.5635C34.4735 30.4254 30.4315 34.4722 25.3125 35.5635ZM25.3125 22.5C25.3125 24.0533 24.0533 25.3125 22.5 25.3125C20.9467 25.3125 19.6875 24.0533 19.6875 22.5C19.6875 20.9467 20.9467 19.6875 22.5 19.6875C24.0533 19.6875 25.3125 20.9467 25.3125 22.5Z" fill="#C4C4C4"/>
</svg>
