<svg width="45" height="44" viewBox="0 0 45 44" fill="none" xmlns="http://www.w3.org/2000/svg">
<path d="M39.375 8.07257H31.9043V6.12096C31.9043 4.52419 31.3623 3.17876 30.2783 2.08467C29.1943 0.990586 27.8613 0.443542 26.2793 0.443542H18.7207C17.1387 0.443542 15.8057 0.990586 14.7217 2.08467C13.6377 3.17876 13.0957 4.52419 13.0957 6.12096V8.07257H5.625C4.04297 8.07257 2.70996 8.60483 1.62598 9.66935C0.541992 10.7339 0 12.0941 0 13.75V21.2903C0 22.5323 0.615234 23.1532 1.8457 23.1532V38.3226C1.8457 39.3279 2.22656 40.215 2.98828 40.9839C3.75 41.7527 4.62891 42.1371 5.625 42.1371H39.375C40.3711 42.1371 41.25 41.7527 42.0117 40.9839C42.7734 40.215 43.1543 39.3279 43.1543 38.3226V23.1532C44.3848 23.1532 45 22.5323 45 21.2903V13.75C45 12.0941 44.458 10.7339 43.374 9.66935C42.29 8.60483 40.957 8.07257 39.375 8.07257ZM16.875 6.12096C16.875 5.5887 17.0508 5.14516 17.4023 4.79032C17.7539 4.43548 18.1934 4.25806 18.7207 4.25806H26.2793C26.8066 4.25806 27.2461 4.43548 27.5977 4.79032C27.9492 5.14516 28.125 5.5887 28.125 6.12096V8.07257H16.875V6.12096ZM5.625 38.3226V23.1532H16.875V28.8306C16.875 29.8952 17.2412 30.797 17.9736 31.5363C18.7061 32.2755 19.5996 32.6452 20.6543 32.6452H24.3457C25.4004 32.6452 26.2939 32.2755 27.0264 31.5363C27.7588 30.797 28.125 29.8952 28.125 28.8306V23.1532H39.375V38.3226H5.625ZM20.6543 28.8306V23.1532H24.3457V28.8306H20.6543ZM41.2207 19.4274H3.7793V13.75C3.7793 12.4489 4.39453 11.7984 5.625 11.7984H39.375C40.6055 11.7984 41.2207 12.4489 41.2207 13.75V19.4274Z" fill="#C4C4C4"/>
</svg>
