<svg width="45" height="45" viewBox="0 0 45 45" fill="none" xmlns="http://www.w3.org/2000/svg">
<path d="M33.1562 12.6562C33.1562 18.539 28.3827 23.3125 22.5 23.3125C16.6173 23.3125 11.8438 18.539 11.8438 12.6562C11.8438 6.77351 16.6173 2 22.5 2C28.3827 2 33.1562 6.77351 33.1562 12.6562ZM22.5 31.5312C24.9255 31.5312 27.2361 31.0233 29.3309 30.125H33.75C38.8593 30.125 43 34.2657 43 39.375V40.7812C43 42.0058 42.0058 43 40.7812 43H4.21875C2.99422 43 2 42.0058 2 40.7812V39.375C2 34.2657 6.1407 30.125 11.25 30.125H15.6705C17.7692 31.0222 20.072 31.5312 22.5 31.5312Z" stroke="#C4C4C4" stroke-width="4"/>
</svg>
