<svg width="47" height="50" viewBox="0 0 47 50" fill="none" xmlns="http://www.w3.org/2000/svg">
<path d="M12.5372 45.763C14.2358 42.9996 12.8687 40.5103 13.7916 39.009C16.2453 35.0172 25.742 45.8611 25.742 45.8611C25.742 45.8611 28.448 29.5239 33.9919 32.9317C36.3765 34.3975 35.5856 37.2391 38.2302 38.8647C40.5931 40.3172 43.0222 39.2321 44.3865 37.0127C45.8042 34.7063 45.8443 31.8228 43.3515 30.2904C40.5984 28.5981 38.1088 29.9759 36.6131 29.0565C31.9792 26.2081 41.9012 16.1776 41.9012 16.1776L19.7222 2.54436C19.7222 2.54436 9.68196 12.7543 14.3215 15.6063C15.8173 16.5257 18.6274 14.5849 21.3804 16.2771C23.8734 17.8095 23.9339 20.5291 22.5296 22.8138C21.1519 25.0549 18.7228 26.14 16.3599 24.6876C13.7153 23.062 14.5062 20.2204 12.1217 18.7546C8.07487 16.2671 5.10398 26.3327 2.99478 29.764C2.99478 29.764 12.4089 32.3663 9.93163 36.3965C8.46037 38.79 5.62624 38.0072 3.99448 40.6618C2.53652 43.0335 3.61166 45.4631 5.84443 46.8356C8.12059 48.2347 10.9991 48.2652 12.5372 45.763V45.763Z" stroke="#C4C4C4" stroke-width="3"/>
</svg>
